<svg id="Layer_1" data-name="Layer 1" xmlns="http://www.w3.org/2000/svg" width="222" height="197" viewBox="0 0 222 197"><path d="M11.3378,111.0928c2.2553-.341,3.8307-1.7717,5.4452-3.2368C28.0744,97.61,39.4605,87.4666,50.6806,77.143A14.6147,14.6147,0,0,1,61.3823,73.05q49.23.213,98.4619-.0194a15.756,15.756,0,0,1,11.5434,4.511c10.978,10.097,21.7093,20.5337,33.3774,29.7769,5.2308,4.1437,6.1189,8.3275,6.019,14.1691q-.4041,23.6142-.0063,47.2391c.12,6.8945-2.2433,11.8758-8.3951,15.003q-93.3562,0-186.7123.0714c-3.2744.0051-4.5048-.28-4.46-4.1823C11.4705,156.7793,11.3378,133.9353,11.3378,111.0928Zm99.5209,63.5689c28.0089,0,56.0182-.0687,84.0265.0678,4.6548.0227,6.5325-1.49,6.4627-6.3073-.2065-14.25-.1754-28.5063-.0064-42.7574.0478-4.0225-1.2-5.604-5.3934-5.5391-12.9241.2-25.8545.1707-38.78.01-3.4072-.0424-4.944,1.2795-6.0855,4.4-3.7362,10.2123-11.1826,16.45-21.9309,17.806a161.8528,161.8528,0,0,1-35.703.1567c-11.3877-1.0932-19.2452-7.6078-23.0574-18.4642-1.11-3.161-2.95-3.8908-5.9309-3.8707-12.7609.0859-25.5266.2156-38.2822-.0612-4.7355-.1028-5.9283,1.712-5.8613,6.1071.2072,13.587.0634,27.1792.0795,40.7694.0089,7.5184.1762,7.6807,7.9266,7.6834Q69.591,174.6761,110.8587,174.6617ZM27.6,110.7582c3.0577,0,4.6893,0,6.3208,0,13.09.0021,26.181.0792,39.27-.0436,3.4924-.0328,4.9544,1.02,5.1729,4.76.6345,10.8623,7.5008,17.5915,18.6212,18.032,9.2641.3669,18.5669.3717,27.83-.009,10.5736-.4346,18.061-7.3372,18.4083-17.1635.1728-4.89,2.2194-5.694,6.3854-5.6386,13.0878.1744,26.1795.09,39.2693.0215,1.3028-.0068,2.9088.746,4.1052-.9416-9.3983-8.48-18.7637-16.87-28.0441-25.354-1.7757-1.6233-3.7448-1.8639-5.9489-1.8626q-48.2182.028-96.4365.0064c-2.0164-.0006-3.8937.12-5.5382,1.617C47.5978,92.7534,38.1239,101.263,27.6,110.7582Z" style="fill:#ccc"/><path d="M115.7519,27.0679c.0063,3.1492-.071,6.3008.0267,9.4469.1118,3.6015-1.5257,5.0266-5.1068,4.9784-3.3839-.0456-4.811-1.49-4.7766-4.8046q.0979-9.4464-.0018-18.8943c-.0411-3.4054,1.4814-4.6225,4.8545-4.5949,3.2136.0262,5.1029.87,5.0142,4.4217C115.6836,20.7682,115.7457,23.9188,115.7519,27.0679Z" style="fill:#ccc"/><path d="M159.8633,23.0327c-.3959.7225-.7535,1.4678-1.1924,2.1617-3.6307,5.7383-7.3525,11.4208-10.8832,17.22-1.5789,2.5933-3.2375,2.9135-5.6429,1.1787-2.1742-1.5679-4.7383-2.6674-2.415-6.14,3.8669-5.78,7.4985-11.7166,11.2283-17.5878.9779-1.5393,2.1908-2.7014,4.0366-1.4085C156.79,19.7143,159.4,20.1848,159.8633,23.0327Z" style="fill:#ccc"/><path d="M79.1721,44.7442c-1.42.22-2.07-.7807-2.6975-1.7557-3.84-5.9692-7.6174-11.9794-11.5145-17.911-2.0833-3.171.2413-4.3334,2.3014-5.8031,2.2247-1.5872,4.014-1.9308,5.703.82,3.4539,5.6259,7.1329,11.1131,10.62,16.719C85.7136,40.2359,83.3052,44.4559,79.1721,44.7442Z" style="fill:#ccc"/></svg>